<mxfile host="app.diagrams.net" agent="Mozilla/5.0 (Macintosh; Intel Mac OS X 10_15_7) AppleWebKit/537.36 (KHTML, like Gecko) Chrome/137.0.0.0 Safari/537.36" version="27.1.4">
  <diagram name="Página-1" id="nHWfMplYw4MDNtT_O4YW">
    <mxGraphModel dx="4740" dy="2576" grid="1" gridSize="10" guides="1" tooltips="1" connect="1" arrows="1" fold="1" page="1" pageScale="1" pageWidth="827" pageHeight="1169" math="0" shadow="0">
      <root>
        <mxCell id="0" />
        <mxCell id="1" parent="0" />
        <mxCell id="ACUDd8q_BsxBB7Xxxsl6-1" value="cliente&amp;nbsp;" style="verticalAlign=top;align=left;spacingTop=8;spacingLeft=2;spacingRight=12;shape=cube;size=10;direction=south;fontStyle=4;html=1;whiteSpace=wrap;fillColor=#33FFFF;strokeColor=#10739e;" vertex="1" parent="1">
          <mxGeometry x="34" y="250" width="330" height="410" as="geometry" />
        </mxCell>
        <mxCell id="ACUDd8q_BsxBB7Xxxsl6-2" value="&lt;div&gt;Dispositivo del Usuario (Paciente)&lt;/div&gt;" style="verticalAlign=top;align=left;spacingTop=8;spacingLeft=2;spacingRight=12;shape=cube;size=10;direction=south;fontStyle=4;html=1;whiteSpace=wrap;fillColor=#33FFFF;" vertex="1" parent="1">
          <mxGeometry x="224" y="710" width="260" height="350" as="geometry" />
        </mxCell>
        <mxCell id="ACUDd8q_BsxBB7Xxxsl6-3" value="&lt;p style=&quot;margin:0px;margin-top:6px;text-align:center;&quot;&gt;&lt;b&gt;Component&lt;/b&gt;&lt;/p&gt;&lt;hr size=&quot;1&quot; style=&quot;border-style:solid;&quot;&gt;&lt;p style=&quot;margin:0px;margin-left:8px;&quot;&gt;&amp;lt;&amp;lt;artifact&amp;gt;&amp;gt; administrador&amp;nbsp;&lt;br&gt;&lt;br&gt;&lt;/p&gt;" style="align=left;overflow=fill;html=1;dropTarget=0;whiteSpace=wrap;fillColor=#FFFF33;" vertex="1" parent="1">
          <mxGeometry x="214" y="330" width="120" height="60" as="geometry" />
        </mxCell>
        <mxCell id="ACUDd8q_BsxBB7Xxxsl6-4" value="" style="shape=component;jettyWidth=8;jettyHeight=4;" vertex="1" parent="ACUDd8q_BsxBB7Xxxsl6-3">
          <mxGeometry x="1" width="20" height="20" relative="1" as="geometry">
            <mxPoint x="-24" y="4" as="offset" />
          </mxGeometry>
        </mxCell>
        <mxCell id="ACUDd8q_BsxBB7Xxxsl6-5" style="edgeStyle=orthogonalEdgeStyle;rounded=0;orthogonalLoop=1;jettySize=auto;html=1;entryX=1;entryY=0.5;entryDx=0;entryDy=0;" edge="1" parent="1" source="ACUDd8q_BsxBB7Xxxsl6-6" target="ACUDd8q_BsxBB7Xxxsl6-7">
          <mxGeometry relative="1" as="geometry">
            <Array as="points">
              <mxPoint x="204" y="425" />
              <mxPoint x="204" y="315" />
            </Array>
          </mxGeometry>
        </mxCell>
        <mxCell id="ACUDd8q_BsxBB7Xxxsl6-6" value="inicio de sesión&amp;nbsp;&amp;nbsp;" style="shape=module;align=left;spacingLeft=20;align=center;verticalAlign=top;whiteSpace=wrap;html=1;" vertex="1" parent="1">
          <mxGeometry x="214" y="400" width="110" height="50" as="geometry" />
        </mxCell>
        <mxCell id="ACUDd8q_BsxBB7Xxxsl6-7" value="BD usuarios" style="html=1;whiteSpace=wrap;fillColor=#33FFFF;" vertex="1" parent="1">
          <mxGeometry x="44" y="300" width="60" height="30" as="geometry" />
        </mxCell>
        <mxCell id="ACUDd8q_BsxBB7Xxxsl6-8" style="edgeStyle=orthogonalEdgeStyle;rounded=0;orthogonalLoop=1;jettySize=auto;html=1;curved=0;" edge="1" parent="1" source="ACUDd8q_BsxBB7Xxxsl6-9" target="ACUDd8q_BsxBB7Xxxsl6-11">
          <mxGeometry relative="1" as="geometry">
            <mxPoint x="304" y="520" as="targetPoint" />
          </mxGeometry>
        </mxCell>
        <mxCell id="ACUDd8q_BsxBB7Xxxsl6-9" value="" style="shape=umlLifeline;perimeter=lifelinePerimeter;whiteSpace=wrap;html=1;container=1;dropTarget=0;collapsible=0;recursiveResize=0;outlineConnect=0;portConstraint=eastwest;newEdgeStyle={&quot;curved&quot;:0,&quot;rounded&quot;:0};participant=umlBoundary;" vertex="1" parent="1">
          <mxGeometry x="324" y="420" width="20" height="20" as="geometry" />
        </mxCell>
        <mxCell id="ACUDd8q_BsxBB7Xxxsl6-10" style="edgeStyle=orthogonalEdgeStyle;rounded=0;orthogonalLoop=1;jettySize=auto;html=1;entryX=0.999;entryY=0.381;entryDx=0;entryDy=0;entryPerimeter=0;" edge="1" parent="1" source="ACUDd8q_BsxBB7Xxxsl6-2">
          <mxGeometry relative="1" as="geometry">
            <mxPoint x="454" y="545.1600000000001" as="sourcePoint" />
            <mxPoint x="632.5600000000001" y="420" as="targetPoint" />
            <Array as="points">
              <mxPoint x="633" y="790" />
              <mxPoint x="633" y="430" />
              <mxPoint x="634" y="430" />
              <mxPoint x="634" y="440" />
              <mxPoint x="633" y="440" />
            </Array>
          </mxGeometry>
        </mxCell>
        <mxCell id="ACUDd8q_BsxBB7Xxxsl6-11" value="interfaz de las pantallas administrador" style="shape=module;align=left;spacingLeft=20;align=center;verticalAlign=top;whiteSpace=wrap;html=1;" vertex="1" parent="1">
          <mxGeometry x="364" y="750" width="100" height="50" as="geometry" />
        </mxCell>
        <mxCell id="ACUDd8q_BsxBB7Xxxsl6-12" value="administrador" style="verticalAlign=top;align=left;spacingTop=8;spacingLeft=2;spacingRight=12;shape=cube;size=10;direction=south;fontStyle=4;html=1;whiteSpace=wrap;fillColor=#33FFFF;" vertex="1" parent="1">
          <mxGeometry x="494" y="260" width="240" height="160" as="geometry" />
        </mxCell>
        <mxCell id="ACUDd8q_BsxBB7Xxxsl6-13" value="listado de datos personales requeridos para el inicio de sesión&amp;nbsp;&amp;nbsp;" style="shape=module;align=left;spacingLeft=20;align=center;verticalAlign=top;whiteSpace=wrap;html=1;" vertex="1" parent="1">
          <mxGeometry x="574" y="280" width="120" height="70" as="geometry" />
        </mxCell>
        <mxCell id="ACUDd8q_BsxBB7Xxxsl6-14" value="BD usuarios" style="html=1;whiteSpace=wrap;fillColor=#33FFFF;" vertex="1" parent="1">
          <mxGeometry x="524" y="380" width="60" height="30" as="geometry" />
        </mxCell>
        <mxCell id="ACUDd8q_BsxBB7Xxxsl6-15" style="edgeStyle=orthogonalEdgeStyle;rounded=0;orthogonalLoop=1;jettySize=auto;html=1;entryX=0.456;entryY=0.067;entryDx=0;entryDy=0;entryPerimeter=0;exitX=0.094;exitY=0.496;exitDx=0;exitDy=0;exitPerimeter=0;" edge="1" parent="1" target="ACUDd8q_BsxBB7Xxxsl6-14">
          <mxGeometry relative="1" as="geometry">
            <Array as="points">
              <mxPoint x="551" y="306" />
            </Array>
            <mxPoint x="584.0000000000001" y="306.4" as="sourcePoint" />
            <mxPoint x="551.6400000000001" y="370" as="targetPoint" />
          </mxGeometry>
        </mxCell>
        <mxCell id="ACUDd8q_BsxBB7Xxxsl6-16" value="datos" style="shape=umlLifeline;perimeter=lifelinePerimeter;whiteSpace=wrap;html=1;container=1;dropTarget=0;collapsible=0;recursiveResize=0;outlineConnect=0;portConstraint=eastwest;newEdgeStyle={&quot;curved&quot;:0,&quot;rounded&quot;:0};participant=umlBoundary;rotation=90;" vertex="1" parent="1">
          <mxGeometry x="599" y="372.5" width="70" height="25" as="geometry" />
        </mxCell>
        <mxCell id="ACUDd8q_BsxBB7Xxxsl6-17" style="edgeStyle=orthogonalEdgeStyle;rounded=0;orthogonalLoop=1;jettySize=auto;html=1;exitX=1;exitY=0.5;exitDx=0;exitDy=0;entryX=0;entryY=0;entryDx=85;entryDy=240;entryPerimeter=0;" edge="1" parent="1" source="ACUDd8q_BsxBB7Xxxsl6-3" target="ACUDd8q_BsxBB7Xxxsl6-12">
          <mxGeometry relative="1" as="geometry">
            <Array as="points">
              <mxPoint x="334" y="345" />
            </Array>
          </mxGeometry>
        </mxCell>
        <mxCell id="ACUDd8q_BsxBB7Xxxsl6-18" value="&lt;p style=&quot;margin:0px;margin-top:6px;text-align:center;&quot;&gt;&lt;b&gt;Component&lt;/b&gt;&lt;/p&gt;&lt;hr size=&quot;1&quot; style=&quot;border-style:solid;&quot;&gt;&lt;p style=&quot;margin:0px;margin-left:8px;&quot;&gt;Cámara&lt;/p&gt;&lt;p style=&quot;margin:0px;margin-left:8px;&quot;&gt;&amp;lt;&amp;lt;artifact&amp;gt;&amp;gt;&amp;nbsp;&lt;/p&gt;&lt;p style=&quot;margin:0px;margin-left:8px;&quot;&gt;ESP32-CAM&lt;/p&gt;&lt;p style=&quot;margin:0px;margin-left:8px;&quot;&gt;&lt;br&gt;&lt;/p&gt;" style="align=left;overflow=fill;html=1;dropTarget=0;whiteSpace=wrap;fillColor=#FFFF33;" vertex="1" parent="1">
          <mxGeometry x="244" y="820" width="120" height="80" as="geometry" />
        </mxCell>
        <mxCell id="ACUDd8q_BsxBB7Xxxsl6-19" value="" style="shape=component;jettyWidth=8;jettyHeight=4;" vertex="1" parent="ACUDd8q_BsxBB7Xxxsl6-18">
          <mxGeometry x="1" width="20" height="20" relative="1" as="geometry">
            <mxPoint x="-24" y="4" as="offset" />
          </mxGeometry>
        </mxCell>
        <mxCell id="ACUDd8q_BsxBB7Xxxsl6-20" value="" style="endArrow=classic;html=1;rounded=0;exitX=0.439;exitY=1.017;exitDx=0;exitDy=0;exitPerimeter=0;entryX=0;entryY=0.942;entryDx=0;entryDy=0;entryPerimeter=0;" edge="1" parent="1" target="ACUDd8q_BsxBB7Xxxsl6-22">
          <mxGeometry width="50" height="50" relative="1" as="geometry">
            <mxPoint x="143.51" y="1360.68" as="sourcePoint" />
            <mxPoint x="144" y="1440" as="targetPoint" />
          </mxGeometry>
        </mxCell>
        <mxCell id="ACUDd8q_BsxBB7Xxxsl6-21" value="" style="endArrow=classic;html=1;rounded=0;exitX=0.439;exitY=0.979;exitDx=0;exitDy=0;exitPerimeter=0;entryX=-0.019;entryY=0.536;entryDx=0;entryDy=0;entryPerimeter=0;" edge="1" parent="1" target="ACUDd8q_BsxBB7Xxxsl6-22">
          <mxGeometry width="50" height="50" relative="1" as="geometry">
            <mxPoint x="423.5100000000001" y="1359.16" as="sourcePoint" />
            <mxPoint x="424" y="1439" as="targetPoint" />
          </mxGeometry>
        </mxCell>
        <mxCell id="ACUDd8q_BsxBB7Xxxsl6-22" value="Aplicación Móvil&amp;nbsp;&lt;div&gt;&lt;br&gt;&lt;/div&gt;&lt;div&gt;Interfaz de Usuario (UI) adaptada al tipo de usuario (Paciente/Tutor/Admin)&lt;/div&gt;" style="verticalAlign=top;align=left;spacingTop=8;spacingLeft=2;spacingRight=12;shape=cube;size=10;direction=south;fontStyle=4;html=1;whiteSpace=wrap;fillColor=#33FFFF;" vertex="1" parent="1">
          <mxGeometry x="104" y="1450" width="690" height="80" as="geometry" />
        </mxCell>
        <mxCell id="ACUDd8q_BsxBB7Xxxsl6-23" value="" style="endArrow=classic;html=1;rounded=0;exitX=0.439;exitY=0.979;exitDx=0;exitDy=0;exitPerimeter=0;entryX=-0.011;entryY=0.13;entryDx=0;entryDy=0;entryPerimeter=0;" edge="1" parent="1" target="ACUDd8q_BsxBB7Xxxsl6-22">
          <mxGeometry width="50" height="50" relative="1" as="geometry">
            <mxPoint x="704" y="1360" as="sourcePoint" />
            <mxPoint x="704" y="1440" as="targetPoint" />
          </mxGeometry>
        </mxCell>
        <mxCell id="ACUDd8q_BsxBB7Xxxsl6-24" value="" style="endArrow=classic;html=1;rounded=0;exitX=0.985;exitY=0.826;exitDx=0;exitDy=0;exitPerimeter=0;entryX=-0.002;entryY=0.542;entryDx=0;entryDy=0;entryPerimeter=0;" edge="1" parent="1" source="ACUDd8q_BsxBB7Xxxsl6-22" target="ACUDd8q_BsxBB7Xxxsl6-25">
          <mxGeometry width="50" height="50" relative="1" as="geometry">
            <mxPoint x="224" y="1540" as="sourcePoint" />
            <mxPoint x="224" y="1600" as="targetPoint" />
            <Array as="points" />
          </mxGeometry>
        </mxCell>
        <mxCell id="ACUDd8q_BsxBB7Xxxsl6-25" value="&lt;div&gt;&lt;span style=&quot;background-color: transparent; color: light-dark(rgb(0, 0, 0), rgb(255, 255, 255));&quot;&gt;Servidor de Aplicaciones.&amp;nbsp;&lt;/span&gt;&lt;/div&gt;&lt;div&gt;&lt;span style=&quot;background-color: transparent; color: light-dark(rgb(0, 0, 0), rgb(255, 255, 255));&quot;&gt;&lt;br&gt;&lt;/span&gt;&lt;/div&gt;&lt;div&gt;&lt;span style=&quot;background-color: transparent; color: light-dark(rgb(0, 0, 0), rgb(255, 255, 255));&quot;&gt;&amp;nbsp;Sistema de Autenticación (Login y roles)&lt;/span&gt;&lt;/div&gt;&lt;div&gt;&amp;nbsp;Módulo de Usuarios (gestión de pacientes, tutores, admins)&lt;/div&gt;&lt;div&gt;&amp;nbsp;Módulo de Terapias (crear, asignar, acceder a sesiones)&lt;/div&gt;&lt;div&gt;&amp;nbsp;Módulo de Reportes (seguimiento de progreso, evaluaciones)&lt;/div&gt;&lt;div&gt;&lt;span style=&quot;background-color: transparent; color: light-dark(rgb(0, 0, 0), rgb(255, 255, 255));&quot;&gt;&amp;nbsp;Servicio de Notificaciones (mensajes entre usuarios yrecordatorios)&lt;/span&gt;&lt;/div&gt;" style="verticalAlign=top;align=left;spacingTop=8;spacingLeft=2;spacingRight=12;shape=cube;size=10;direction=south;fontStyle=4;html=1;whiteSpace=wrap;fillColor=#33FFFF;" vertex="1" parent="1">
          <mxGeometry x="89" y="1600" width="295" height="240" as="geometry" />
        </mxCell>
        <mxCell id="ACUDd8q_BsxBB7Xxxsl6-26" value="(login) inicio de sesión y datos que se necesitan&amp;nbsp;" style="html=1;whiteSpace=wrap;fillColor=#FFFF33;" vertex="1" parent="1">
          <mxGeometry x="234" y="1780" width="110" height="50" as="geometry" />
        </mxCell>
        <mxCell id="ACUDd8q_BsxBB7Xxxsl6-27" value="&lt;div&gt;&lt;span style=&quot;background-color: transparent; color: light-dark(rgb(0, 0, 0), rgb(255, 255, 255));&quot;&gt;Servidor de Base de Datos.&lt;/span&gt;&lt;/div&gt;&lt;div&gt;&lt;span style=&quot;background-color: transparent; color: light-dark(rgb(0, 0, 0), rgb(255, 255, 255));&quot;&gt;&lt;br&gt;&lt;/span&gt;&lt;/div&gt;&lt;div&gt;&lt;span style=&quot;background-color: transparent;&quot;&gt;Base de Datos Relacional (MySQ)&lt;/span&gt;&lt;span style=&quot;background-color: transparent;&quot;&gt;&lt;br&gt;&lt;/span&gt;&lt;/div&gt;&lt;div&gt;Tabla Pacientes&amp;nbsp;&lt;/div&gt;&lt;div&gt;Tabla Tutores&amp;nbsp;&amp;nbsp;&lt;/div&gt;&lt;div&gt;&lt;span style=&quot;background-color: transparent; color: light-dark(rgb(0, 0, 0), rgb(255, 255, 255));&quot;&gt;Tabla Administradores&amp;nbsp;&lt;/span&gt;&lt;/div&gt;&lt;div&gt;Tabla Terapias&amp;nbsp;&lt;/div&gt;&lt;div&gt;Tabla Progresos/Evaluaciones&amp;nbsp;&lt;/div&gt;" style="verticalAlign=top;align=left;spacingTop=8;spacingLeft=2;spacingRight=12;shape=cube;size=10;direction=south;fontStyle=4;html=1;whiteSpace=wrap;fillColor=#33FFFF;" vertex="1" parent="1">
          <mxGeometry x="464" y="1600" width="295" height="240" as="geometry" />
        </mxCell>
        <mxCell id="ACUDd8q_BsxBB7Xxxsl6-28" style="edgeStyle=orthogonalEdgeStyle;rounded=0;orthogonalLoop=1;jettySize=auto;html=1;entryX=0.332;entryY=0.997;entryDx=0;entryDy=0;entryPerimeter=0;" edge="1" parent="1" source="ACUDd8q_BsxBB7Xxxsl6-26" target="ACUDd8q_BsxBB7Xxxsl6-27">
          <mxGeometry relative="1" as="geometry" />
        </mxCell>
        <mxCell id="ACUDd8q_BsxBB7Xxxsl6-29" value="&lt;span style=&quot;font-weight: 700; text-wrap-mode: nowrap;&quot;&gt;Paciente&lt;/span&gt;" style="html=1;whiteSpace=wrap;fillColor=#33FFFF;" vertex="1" parent="1">
          <mxGeometry x="104" y="1320" width="80" height="40" as="geometry" />
        </mxCell>
        <mxCell id="ACUDd8q_BsxBB7Xxxsl6-30" value="&lt;span style=&quot;font-weight: 700; text-wrap-mode: nowrap;&quot;&gt;Tutor&lt;/span&gt;" style="html=1;whiteSpace=wrap;fillColor=#33FFFF;" vertex="1" parent="1">
          <mxGeometry x="384" y="1320" width="80" height="40" as="geometry" />
        </mxCell>
        <mxCell id="ACUDd8q_BsxBB7Xxxsl6-31" value="&lt;span style=&quot;font-weight: 700; text-wrap-mode: nowrap;&quot;&gt;Administrador&lt;/span&gt;" style="html=1;whiteSpace=wrap;fillColor=#33FFFF;" vertex="1" parent="1">
          <mxGeometry x="654" y="1320" width="100" height="40" as="geometry" />
        </mxCell>
      </root>
    </mxGraphModel>
  </diagram>
</mxfile>
